<svg height="480pt" viewBox="-56 0 480 480" width="480pt" xmlns="http://www.w3.org/2000/svg"><path d="m8 0c-4.417969 0-8 3.582031-8 8v464c0 4.417969 3.582031 8 8 8h352c4.417969 0 8-3.582031 8-8v-336c0-.175781-.089844-.328125-.105469-.503906-.039062-.699219-.175781-1.394532-.40625-2.054688-.089843-.257812-.152343-.503906-.265625-.753906-.386718-.871094-.925781-1.664062-1.597656-2.34375l-128-128c-.683594-.667969-1.480469-1.210938-2.351562-1.601562-.234376-.09375-.472657-.175782-.714844-.246094-.691406-.242188-1.410156-.390625-2.144532-.433594-.117187.015625-.253906-.0625-.414062-.0625zm8 464v-448h32v168c0 3.402344 2.152344 6.433594 5.363281 7.554688 3.214844 1.121093 6.785157.085937 8.902344-2.578126l33.734375-42.417968 33.734375 42.402344c1.515625 1.914062 3.824219 3.035156 6.265625 3.039062.898438-.003906 1.789062-.15625 2.640625-.449219 3.210937-1.121093 5.359375-4.148437 5.359375-7.550781v-168h80v120c0 4.417969 3.582031 8 8 8h120v320zm324.6875-336h-100.6875v-100.6875zm-212.6875-112v145.097656l-25.734375-32.363281c-1.519531-1.910156-3.824219-3.023437-6.265625-3.023437s-4.746094 1.113281-6.265625 3.023437l-25.734375 32.363281v-145.097656zm0 0"/><path d="m312 256h-256c-4.417969 0-8 3.582031-8 8s3.582031 8 8 8h256c4.417969 0 8-3.582031 8-8s-3.582031-8-8-8zm0 0"/><path d="m312 320h-256c-4.417969 0-8 3.582031-8 8s3.582031 8 8 8h256c4.417969 0 8-3.582031 8-8s-3.582031-8-8-8zm0 0"/><path d="m312 384h-256c-4.417969 0-8 3.582031-8 8s3.582031 8 8 8h256c4.417969 0 8-3.582031 8-8s-3.582031-8-8-8zm0 0"/></svg>